<svg  xmlns="http://www.w3.org/2000/svg" width="256" height="256"  
fill="currentColor" viewBox="0 0 24 24" >
<!--Boxicons v3.0 https://boxicons.com | License  https://docs.boxicons.com/free-->
<path d="m20,11h-6c-.55,0-1,.45-1,1v8c0,.55.45,1,1,1h6c.55,0,1-.45,1-1v-8c0-.55-.45-1-1-1Zm-1,8h-4v-6h4v6Z"></path><path d="m10,15h-6c-.55,0-1,.45-1,1v4c0,.55.45,1,1,1h6c.55,0,1-.45,1-1v-4c0-.55-.45-1-1-1Zm-1,4h-4v-2h4v2Z"></path><path d="m20,3h-6c-.55,0-1,.45-1,1v4c0,.55.45,1,1,1h6c.55,0,1-.45,1-1v-4c0-.55-.45-1-1-1Zm-1,4h-4v-2h4v2Z"></path><path d="m10,3h-6c-.55,0-1,.45-1,1v8c0,.55.45,1,1,1h6c.55,0,1-.45,1-1V4c0-.55-.45-1-1-1Zm-1,8h-4v-6h4v6Z"></path>
</svg>